<?xml version="1.0" encoding="utf-8"?>
<svg xmlns="http://www.w3.org/2000/svg" width="350" height="350" class="segno"><g transform="scale(10)"><path fill="#f0ebde" d="M0 0h35v35h-35z"/><path class="qrline" stroke="#1f2be0" d="M3 3.5h7m2 0h1m2 0h1m1 0h1m2 0h1m4 0h7m-29 1h1m5 0h1m1 0h5m4 0h2m1 0h1m1 0h1m5 0h1m-29 1h1m1 0h3m1 0h1m1 0h1m1 0h1m3 0h2m2 0h1m1 0h1m1 0h1m1 0h3m1 0h1m-29 1h1m1 0h3m1 0h1m1 0h1m2 0h1m1 0h1m3 0h1m2 0h1m1 0h1m1 0h3m1 0h1m-29 1h1m1 0h3m1 0h1m3 0h1m1 0h2m1 0h2m1 0h3m1 0h1m1 0h3m1 0h1m-29 1h1m5 0h1m2 0h2m3 0h1m7 0h1m5 0h1m-29 1h7m1 0h1m1 0h1m1 0h1m1 0h1m1 0h1m1 0h1m1 0h1m1 0h7m-21 1h2m2 0h1m-13 1h1m5 0h1m1 0h1m2 0h1m1 0h2m2 0h1m1 0h1m1 0h2m2 0h3m-25 1h3m1 0h1m1 0h2m1 0h4m1 0h3m1 0h1m1 0h2m1 0h2m-27 1h1m2 0h1m1 0h1m1 0h3m1 0h5m1 0h1m1 0h1m3 0h1m-24 1h1m1 0h1m4 0h1m3 0h1m1 0h2m3 0h3m3 0h1m-25 1h1m3 0h2m1 0h1m2 0h2m2 0h2m2 0h1m2 0h2m4 0h1m-27 1h1m1 0h1m2 0h1m1 0h1m4 0h3m2 0h2m1 0h3m2 0h2m-29 1h1m2 0h2m1 0h3m1 0h2m2 0h2m1 0h2m1 0h2m2 0h3m-27 1h1m2 0h1m1 0h1m2 0h1m1 0h3m1 0h1m4 0h1m3 0h2m1 0h1m1 0h1m-29 1h1m2 0h2m1 0h2m1 0h1m2 0h1m2 0h3m1 0h1m1 0h1m1 0h1m1 0h2m-27 1h1m1 0h2m1 0h1m2 0h2m2 0h1m2 0h2m2 0h1m2 0h3m1 0h3m-29 1h2m1 0h9m1 0h3m2 0h2m4 0h2m2 0h1m-29 1h1m1 0h3m7 0h1m7 0h1m1 0h1m-23 1h1m2 0h4m1 0h3m6 0h1m1 0h6m1 0h3m-21 1h1m1 0h1m2 0h3m2 0h1m1 0h1m3 0h2m-26 1h7m3 0h2m1 0h3m2 0h3m1 0h1m1 0h3m-27 1h1m5 0h1m2 0h2m1 0h2m5 0h2m3 0h1m-25 1h1m1 0h3m1 0h1m2 0h1m1 0h1m1 0h1m1 0h1m3 0h7m1 0h1m-28 1h1m1 0h3m1 0h1m2 0h2m1 0h1m3 0h6m3 0h2m1 0h1m-29 1h1m1 0h3m1 0h1m6 0h1m1 0h2m2 0h9m-28 1h1m5 0h1m7 0h2m6 0h2m1 0h2m1 0h1m-29 1h7m1 0h1m1 0h1m1 0h1m1 0h1m2 0h3m2 0h3m1 0h1"/></g></svg>
